PathFileType	4	(X/Y/Z)	S01_0003_Gait_markers.trc
DataRate	CameraRate	NumFrames	NumMarkers	Units	OrigDataRate	OrigDataStartFrame	OrigNumFrames
250.000000	250.000000	4	54	mm	250.000000	274	314
Frame#	Time	HEAD_ANT			R_HEAD			L_HEAD			C7			R_BACK			L_BACK			STERNUM			R_ACROMION			R_HUM_PROX			R_HUM_ANT			R_HUM_POST			R_ELBOW_LAT			R_ELBOW_MED			R_FOREARM			R_WIRST_LAT			R_WRITS_MED			R_HAND			L_ACROMION			L_HUM_PROX			L_HUM_ANT			L_HUM_POST			L_ELBOW_LAT			L_ELBOW_MED			L_FOREARM			L_WRIST_LAT			L_WIRST_MED			L_HAND			R_ILIAC			SACRUM			L_ILIAC			R_GTROCH			R_THIGH__1			R_THIGH_2			R_THIGH_3			R_THIGH_4			R_SHANK_1			R_SHANK_2			R_SHANK_3			R_SHANK_4			R_HEEL			R_FOOT_LAT			R_FOOT_MED			L_GTROCH			L_THIGH_1			L_THIGH_2			L_THIGH_3			L_THIGH_4			L_SHANK_1			L_SHANK_2			L_SHANK_3			L_SHANK_4			L_HEEL			L_FOOT_LAT			L_FOOT_MED			
		X1	Y1	Z1	X2	Y2	Z2	X3	Y3	Z3	X4	Y4	Z4	X5	Y5	Z5	X6	Y6	Z6	X7	Y7	Z7	X8	Y8	Z8	X9	Y9	Z9	X10	Y10	Z10	X11	Y11	Z11	X12	Y12	Z12	X13	Y13	Z13	X14	Y14	Z14	X15	Y15	Z15	X16	Y16	Z16	X17	Y17	Z17	X18	Y18	Z18	X19	Y19	Z19	X20	Y20	Z20	X21	Y21	Z21	X22	Y22	Z22	X23	Y23	Z23	X24	Y24	Z24	X25	Y25	Z25	X26	Y26	Z26	X27	Y27	Z27	X28	Y28	Z28	X29	Y29	Z29	X30	Y30	Z30	X31	Y31	Z31	X32	Y32	Z32	X33	Y33	Z33	X34	Y34	Z34	X35	Y35	Z35	X36	Y36	Z36	X37	Y37	Z37	X38	Y38	Z38	X39	Y39	Z39	X40	Y40	Z40	X41	Y41	Z41	X42	Y42	Z42	X43	Y43	Z43	X44	Y44	Z44	X45	Y45	Z45	X46	Y46	Z46	X47	Y47	Z47	X48	Y48	Z48	X49	Y49	Z49	X50	Y50	Z50	X51	Y51	Z51	X52	Y52	Z52	X53	Y53	Z53	X54	Y54	Z54	

275	1.096	1728.460205078125	340.7288208007812	1710.444458007812	1665.5009765625	265.8275756835938	1661.044311523438	1669.728881835938	411.9206848144531	1663.474365234375	1526.286254882812	342.6280517578125	1493.875366210938	1451.837768554688	277.2370910644531	1295.478759765625	1458.41552734375	417.0285339355469	1298.296752929688	1707.15966796875	336.613037109375	1332.562377929688	1600.082763671875	165.6106262207031	1444.37890625	1556.246704101562	77.42410278320312	1282.678466796875	1617.207275390625	70.14315032958984	1197.021118164062	1495.489990234375	69.36653137207031	1199.871948242188	1542.361450195312	58.86528396606445	1092.458129882812	1525.121459960938	140.7472686767578	1088.422607421875	1643.353393554688	48.57851409912109	911.3959350585938	1689.344848632812	82.79116821289062	847.6198120117188	1616.011962890625	56.13986206054688	821.4287109375	1684.80810546875	32.18780517578125	755.9443359375	1615.535400390625	507.0865173339844	1447.732543945312	1613.760131835938	599.9008178710938	1279.9423828125	1679.760009765625	588.2935180664062	1203.679931640625	1564.635131835938	632.6732788085938	1198.696533203125	1630.136352539062	630.235595703125	1097.65234375	1571.384033203125	579.2726440429688	1087.10791015625	1759.197143554688	579.3780517578125	945.0178833007812	1791.039672851562	517.8906860351562	894.888916015625	1761.811401367188	582.2139892578125	859.9921264648438	1845.04052734375	553.959716796875	823.54541015625	1613.332397460938	167.7240447998047	1040.625854492188	1478.563354492188	327.456787109375	1020.163391113281	1593.213989257812	511.97509765625	1041.865112304688	1578.076049804688	153.2695465087891	889.7945556640625	1700.406616210938	175.3913421630859	626.0936889648438	1747.580810546875	171.4348907470703	661.296630859375	1787.09814453125	212.0342864990234	569.276123046875	1725.156494140625	200.9189758300781	551.3434448242188	1796.741455078125	198.9545135498047	335.576171875	1855.945190429688	212.7645721435547	338.2185668945312	1885.67626953125	230.9713439941406	259.0921020507812	1823.866455078125	221.5496520996094	239.9175567626953	1872.809204101562	309.8024597167969	32.05229568481445	2034.282348632812	228.0836791992188	64.34131622314453	2070.2470703125	315.9474487304688	103.7403869628906	1543.39306640625	512.9967651367188	940.3939208984375	1541.04150390625	500.1433715820312	648.1497802734375	1495.588134765625	511.6720275878906	683.7073974609375	1452.815673828125	479.2174682617188	592.59033203125	1514.097290039062	473.9805908203125	574.9126586914062	1368.4375	456.5892333984375	334.9842224121094	1307.853271484375	457.78759765625	339.0114135742188	1270.814331054688	436.7898559570312	262.2480773925781	1331.4873046875	430.0179748535156	242.2547607421875	1160.332641601562	357.616943359375	107.2915954589844	1313.9140625	425.67919921875	19.66752624511719	1356.510498046875	321.7718200683594	28.80063438415527	
276	1.1	1734.207885742188	340.3546447753906	1709.742065429688	1671.201416015625	265.4657592773438	1660.374755859375	1675.427856445312	411.55419921875	1662.826904296875	1532.134399414062	342.1143493652344	1493.27197265625	1457.830444335938	277.0386352539062	1294.80517578125	1464.120239257812	416.5508422851562	1297.619873046875	1712.985107421875	336.1867370605469	1331.89697265625	1606.0107421875	165.1856994628906	1443.550415039062	1562.046020507812	77.39527893066406	1281.831420898438	1623.071655273438	70.02706146240234	1196.129272460938	1501.309326171875	69.01041412353516	1198.936767578125	1548.06884765625	58.66580581665039	1091.520751953125	1530.722778320312	140.8477630615234	1087.54150390625	1649.194580078125	48.40816879272461	910.5714721679688	1694.7705078125	82.72998809814453	846.5046997070312	1621.40576171875	56.42573165893555	820.3345336914062	1689.843017578125	32.41360855102539	754.7479248046875	1621.327270507812	506.700927734375	1447.061645507812	1619.516845703125	599.3706665039062	1279.20849609375	1685.553588867188	587.9690551757812	1202.9716796875	1570.24560546875	632.0665893554688	1197.934326171875	1635.78173828125	629.8621215820312	1097.042358398438	1577.62744140625	578.4745483398438	1086.36572265625	1764.990844726562	579.2280883789062	944.0993041992188	1796.817626953125	517.887451171875	893.9251098632812	1767.413452148438	582.2357177734375	859.2391967773438	1850.649047851562	554.2843627929688	822.5460205078125	1618.98828125	167.5120239257812	1039.948852539062	1484.733520507812	327.41162109375	1019.302917480469	1599.069213867188	511.9333190917969	1041.337036132812	1584.359497070312	153.3203735351562	889.2485961914062	1708.027587890625	176.9161987304688	625.5771484375	1754.845336914062	172.2223968505859	661.3107299804688	1794.807250976562	212.8003234863281	569.47314453125	1732.931518554688	202.13671875	551.41259765625	1803.670043945312	199.4150543212891	335.4687805175781	1862.618408203125	213.9322662353516	337.3564453125	1891.5654296875	232.1307678222656	257.8492431640625	1829.635375976562	222.2630767822266	239.4066772460938	1876.278686523438	310.5277709960938	30.79034042358398	2038.014038085938	228.3554382324219	62.78556442260742	2074.216796875	316.734375	101.3374710083008	1549.483764648438	512.9447631835938	939.6749877929688	1547.1787109375	500.2951965332031	647.6248779296875	1501.559936523438	511.8084716796875	683.2697143554688	1459.036865234375	479.5654602050781	592.0943603515625	1519.960083007812	474.4777526855469	574.2246704101562	1372.650146484375	457.0984191894531	335.018310546875	1311.957885742188	458.6569519042969	339.59912109375	1274.040771484375	437.3370666503906	263.3301391601562	1334.619140625	430.8031616210938	242.7656097412109	1161.677978515625	358.682373046875	109.7495727539062	1314.101806640625	425.3377990722656	19.29023933410645	1356.685913085938	322.0473327636719	28.95157241821289	
277	1.104	1739.8740234375	339.8174133300781	1709.14111328125	1676.930053710938	264.9989013671875	1659.694091796875	1681.126953125	411.14794921875	1662.22021484375	1537.929931640625	341.6802368164062	1492.56640625	1463.913330078125	276.9952087402344	1294.04638671875	1470.030029296875	416.3510131835938	1296.855102539062	1719.291137695312	336.1963806152344	1331.4345703125	1611.803833007812	164.8283538818359	1442.816650390625	1568.06884765625	76.95700836181641	1280.978637695312	1628.9814453125	69.93886566162109	1195.24951171875	1507.328979492188	68.69600677490234	1198.162963867188	1553.914428710938	58.70145416259766	1090.864135742188	1536.203735351562	140.6511383056641	1086.770874023438	1654.3310546875	48.59469985961914	909.4116821289062	1700.349853515625	82.64620971679688	845.45654296875	1626.818359375	56.5301399230957	819.4366455078125	1694.996337890625	32.51470947265625	753.6072387695312	1627.4169921875	506.3746032714844	1446.386474609375	1625.353393554688	599.0455932617188	1278.610473632812	1691.61328125	587.6325073242188	1202.297119140625	1576.101318359375	631.49072265625	1197.215576171875	1641.6982421875	629.3214721679688	1096.252563476562	1583.247924804688	578.0380249023438	1085.71044921875	1770.64990234375	579.2335205078125	943.2600708007812	1802.536376953125	518.0327758789062	892.8609619140625	1773.101684570312	582.31005859375	858.365234375	1856.226318359375	554.5433349609375	821.5725708007812	1624.689086914062	167.4281005859375	1039.340087890625	1491.124877929688	327.1835632324219	1018.437561035156	1604.794311523438	511.6166381835938	1040.701782226562	1590.897338867188	153.3652496337891	888.799560546875	1715.260009765625	176.8213195800781	625.7161865234375	1761.975830078125	172.6940460205078	661.1551513671875	1802.497924804688	213.407470703125	569.4452514648438	1740.380126953125	202.931884765625	550.9210815429688	1810.29345703125	200.2040710449219	335.0526733398438	1869.718505859375	214.7986907958984	336.6164245605469	1897.216674804688	233.4851226806641	256.7685852050781	1835.410888671875	222.8369598388672	238.8095703125	1879.311157226562	311.3341979980469	29.55987167358398	2041.302490234375	229.6570892333984	60.40744400024414	2077.944580078125	317.7969970703125	98.728515625	1555.588134765625	512.7517700195312	939.1189575195312	1553.530029296875	500.5244140625	647.0816040039062	1507.828247070312	511.9939575195312	682.6627807617188	1465.135986328125	479.7214660644531	591.305908203125	1526.4072265625	474.6469421386719	573.6232299804688	1376.975219726562	457.4659423828125	335.1064453125	1316.269775390625	459.1263732910156	340.2929382324219	1277.584228515625	438.2832336425781	264.7026672363281	1337.828491210938	431.3436584472656	243.1007537841797	1163.170288085938	359.7959594726562	112.4597015380859	1314.253051757812	425.4472351074219	19.36484718322754	1356.793701171875	322.3578186035156	29.10370445251465	
278	1.108	1745.658569335938	339.4900512695312	1708.621337890625	1682.690795898438	264.5258178710938	1659.077026367188	1686.906860351562	410.7551574707031	1661.625366210938	1543.891967773438	341.104248046875	1491.985473632812	1469.884643554688	276.5928649902344	1293.256225585938	1476.016357421875	416.1069946289062	1296.28271484375	1725.330688476562	335.8921813964844	1330.772094726562	1617.719970703125	164.3972015380859	1442.087768554688	1574.081909179688	76.70784759521484	1280.14501953125	1634.928955078125	69.71903228759766	1194.447143554688	1513.270385742188	68.469970703125	1197.388061523438	1559.94775390625	58.5657844543457	1090.010009765625	1542.1806640625	140.4345855712891	1086.064331054688	1659.851928710938	48.55752944946289	908.5089721679688	1705.8876953125	82.571044921875	844.4864501953125	1632.274169921875	56.60908508300781	818.5337524414062	1700.270629882812	32.59463882446289	752.5418701171875	1633.262817382812	505.8314819335938	1445.764404296875	1631.128540039062	598.5916748046875	1277.912841796875	1697.422241210938	587.3184204101562	1201.620971679688	1581.922973632812	631.1510009765625	1196.642211914062	1647.301391601562	628.8668212890625	1095.748657226562	1589.214965820312	577.4439086914062	1085.071533203125	1776.348266601562	579.2701416015625	942.4341430664062	1808.342651367188	518.130859375	891.9269409179688	1778.544189453125	582.2877197265625	857.544677734375	1861.826782226562	554.8369140625	820.6146240234375	1630.316528320312	167.2153167724609	1038.795288085938	1497.5	327.1261291503906	1017.5439453125	1610.515502929688	511.5050048828125	1039.901123046875	1597.513793945312	153.6884307861328	888.2496337890625	1722.84423828125	178.2135009765625	625.2105102539062	1769.373168945312	173.3073120117188	661.0293579101562	1810.047973632812	214.1740264892578	569.572998046875	1748.153198242188	203.6737060546875	550.7431030273438	1816.917358398438	200.4965667724609	334.9679870605469	1875.712768554688	216.2443084716797	335.3493041992188	1902.783081054688	234.6015319824219	255.5096130371094	1840.939331054688	223.5314178466797	238.0550231933594	1881.992309570312	311.8888244628906	28.91271209716797	2044.315307617188	230.7215728759766	58.11938095092773	2081.18701171875	318.85986328125	95.95354461669922	1561.910400390625	512.5380859375	938.4120483398438	1559.954345703125	500.602294921875	646.5606079101562	1514.437622070312	512.2105102539062	682.1484985351562	1471.586059570312	480.17626953125	590.8286743164062	1532.567138671875	475.2218017578125	572.9588012695312	1381.364501953125	458.2814331054688	335.3025817871094	1320.825927734375	460.0917358398438	341.37939453125	1281.093505859375	439.043212890625	265.8639831542969	1340.989013671875	432.1350708007812	243.807373046875	1164.759765625	360.8456115722656	115.3409729003906	1314.5107421875	425.5396728515625	19.44472503662109	1356.918090820312	322.6375427246094	29.24654388427734	
